REM GENRE Rock
REM DATE 2007
REM DISCID A60EB80D
REM COMMENT "ExactAudioCopy v0.95b4"
PERFORMER "Rush"
TITLE "Snakes & Arrows"
FILE "01-Far Cry.flac" WAVE
  TRACK 01 AUDIO
    TITLE "Far Cry"
    PERFORMER "Rush"
    INDEX 01 00:00:00
FILE "02-Armor and Sword.flac" WAVE
  TRACK 02 AUDIO
    TITLE "Armor and Sword"
    PERFORMER "Rush"
    INDEX 01 00:00:00
FILE "03-Workin' Them Angels.flac" WAVE
  TRACK 03 AUDIO
    TITLE "Workin' Them Angels"
    PERFORMER "Rush"
    INDEX 01 00:00:00
FILE "04-The Larger Bowl.flac" WAVE
  TRACK 04 AUDIO
    TITLE "The Larger Bowl"
    PERFORMER "Rush"
    INDEX 01 00:00:00
FILE "05-Spindrift.flac" WAVE
  TRACK 05 AUDIO
    TITLE "Spindrift "
    PERFORMER "Rush"
    INDEX 01 00:00:00
FILE "06-The Main Monkey Business.flac" WAVE
  TRACK 06 AUDIO
    TITLE "The Main Monkey Business"
    PERFORMER "Rush"
    INDEX 01 00:00:00
FILE "07-The Way the Wind Blows.flac" WAVE
  TRACK 07 AUDIO
    TITLE "The Way the Wind Blows"
    PERFORMER "Rush"
    INDEX 01 00:00:00
FILE "08-Hope.flac" WAVE
  TRACK 08 AUDIO
    TITLE "Hope"
    PERFORMER "Rush"
    INDEX 01 00:00:00
FILE "09-Faithless.flac" WAVE
  TRACK 09 AUDIO
    TITLE "Faithless"
    PERFORMER "Rush"
    INDEX 01 00:00:00
  TRACK 10 AUDIO
    TITLE "Bravest Face"
    PERFORMER "Rush"
    INDEX 00 05:30:71
FILE "10-Bravest Face.flac" WAVE
    INDEX 01 00:00:00
FILE "11-Good News First.flac" WAVE
  TRACK 11 AUDIO
    TITLE "Good News First"
    PERFORMER "Rush"
    INDEX 01 00:00:00
  TRACK 12 AUDIO
    TITLE "Malignant Narcissism"
    PERFORMER "Rush"
    INDEX 00 04:51:11
FILE "12-Malignant Narcissism.flac" WAVE
    INDEX 01 00:00:00
FILE "13-We Hold On.flac" WAVE
  TRACK 13 AUDIO
    TITLE "We Hold On"
    PERFORMER "Rush"
    INDEX 01 00:00:00
